<svg width="19" height="15" viewBox="0 0 19 15" fill="none" xmlns="http://www.w3.org/2000/svg">
<path fill-rule="evenodd" clip-rule="evenodd" d="M16.0239 14.9604H2.33643C0.812988 14.9604 0.0317383 14.187 0.0317383 12.6792V3.09326C0.0317383 1.58545 0.812988 0.812012 2.33643 0.812012H16.0239C17.5552 0.812012 18.3286 1.59326 18.3286 3.09326V12.6792C18.3286 14.1792 17.5552 14.9604 16.0239 14.9604ZM11.5552 5.68701C11.5552 6.71826 12.3989 7.5542 13.4302 7.5542C14.4614 7.5542 15.2974 6.71826 15.2974 5.68701C15.2974 4.64795 14.4614 3.81201 13.4302 3.81201C12.3989 3.81201 11.5552 4.64795 11.5552 5.68701ZM3.48486 5.21045C3.24268 5.21045 3.06299 5.01514 3.06299 4.77295C3.06299 4.53857 3.24268 4.35107 3.48486 4.35107H8.74268C8.97705 4.35107 9.16455 4.53857 9.16455 4.77295C9.16455 5.01514 8.97705 5.21045 8.74268 5.21045H3.48486ZM3.06299 6.76514C3.06299 7.00732 3.24268 7.19482 3.48486 7.19482H7.33643C7.57861 7.19482 7.76611 7.00732 7.76611 6.76514C7.76611 6.53076 7.57861 6.33545 7.33643 6.33545H3.48486C3.24268 6.33545 3.06299 6.53076 3.06299 6.76514Z" fill="#6B6B6B"/>
</svg>
