<svg width="164" height="29" viewBox="0 0 164 29" fill="none" xmlns="http://www.w3.org/2000/svg">
<path fill-rule="evenodd" clip-rule="evenodd" d="M27.594 14C27.594 6.6362 21.6242 0.666666 14.2601 0.666666C6.89604 0.666666 0.92627 6.6362 0.92627 14C0.92627 21.3638 6.89604 27.3333 14.2601 27.3333C21.6242 27.3333 27.594 21.3638 27.594 14ZM25.1519 13.5929C21.9548 10.7553 18.3225 8.7619 14.1645 8.7619C10.5382 8.7819 6.92231 10.3914 3.3181 13.5892C3.2891 13.6141 3.26237 13.6433 3.23858 13.6766C3.07824 13.9011 3.11197 14.2283 3.31338 14.4071C6.91967 17.6077 10.537 19.2185 14.1648 19.2381C18.3205 19.2381 21.9512 17.2463 25.1472 14.4108C25.1762 14.3859 25.2029 14.3567 25.2267 14.3234C25.387 14.0989 25.3533 13.7717 25.1519 13.5929ZM15.4641 12.7681C15.1498 12.4537 14.7144 12.2595 14.2325 12.2595C13.7509 12.2595 13.3153 12.4537 13.0018 12.7673C12.6866 13.0823 12.4922 13.5179 12.4922 13.9996C12.4922 14.4812 12.6865 14.9168 13.0001 15.2303C13.3151 15.5454 13.7507 15.7398 14.2324 15.7398C14.7141 15.7398 15.1497 15.5456 15.4632 15.232C15.7783 14.917 15.9727 14.4814 15.9727 13.9997C15.9727 13.5181 15.7785 13.0825 15.4641 12.7683V12.7681ZM2.4405 14C2.4405 7.47246 7.73233 2.18084 14.2601 2.18084C20.7879 2.18084 26.0797 7.47246 26.0797 14C26.0797 20.5275 20.7879 25.8192 14.2601 25.8192C7.73233 25.8192 2.4405 20.5275 2.4405 14ZM11.1088 10.8782L11.1287 10.8584C9.07415 11.3842 7.01548 12.4309 4.95277 13.9995C7.01548 15.5677 9.07388 16.6149 11.1284 17.1405L11.1115 17.1237L11.1089 17.1214C10.3093 16.321 9.81455 15.2173 9.81455 13.9996C9.81455 12.7824 10.3088 11.6788 11.1086 10.8783L11.1088 10.8782ZM17.356 10.8776L17.3366 10.8584L17.3369 10.8583C19.3914 11.3839 21.4498 12.4311 23.5125 13.9993C21.4498 15.5675 19.3913 16.6142 17.3369 17.14L17.3545 17.1227L17.3568 17.1201C18.1561 16.3201 18.6504 15.2165 18.6504 13.9993C18.6504 12.7816 18.1557 11.6779 17.356 10.8776Z" fill="#001C27"/>
<path d="M37.9337 22.8482H41.3419L41.3658 8.81047H46.3948V5.75982H33V8.81047H37.9813L37.9337 22.8482Z" fill="#001C27"/>
<path fill-rule="evenodd" clip-rule="evenodd" d="M53.8309 9.5493C58.55 9.52547 60.1231 12.0518 60.1231 16.3894C60.1231 20.7509 58.55 23.2057 53.8309 23.2057C49.1355 23.2057 47.5625 20.7509 47.5625 16.3894C47.5625 12.0518 49.1355 9.5493 53.8309 9.5493ZM53.8309 12.1709C51.6858 12.1709 50.9708 13.4579 50.9708 16.3894C50.9708 19.3447 51.6858 20.5841 53.8309 20.5841C55.9998 20.5841 56.7148 19.3447 56.7148 16.3894C56.7148 13.4579 55.9998 12.1709 53.8309 12.1709Z" fill="#001C27"/>
<path d="M62.6973 22.8482H65.9149V19.7261L67.8693 17.3666L70.7055 22.8482H74.4475L69.919 14.8641L73.9946 9.9068H70.3718L65.9149 15.8413V4.85416H62.6973V22.8482Z" fill="#001C27"/>
<path fill-rule="evenodd" clip-rule="evenodd" d="M84.3863 18.7727H87.6993C87.6039 20.7032 86.4599 23.2057 81.6454 23.2057C77.0454 23.2057 75.4009 20.7271 75.4009 16.3894C75.4009 12.0756 77.0454 9.5493 81.6454 9.5493C86.1262 9.5493 87.7469 11.7896 87.7469 17.1759H78.833C78.9522 19.7261 79.7625 20.7271 81.6454 20.7271C83.7428 20.7271 84.3625 19.5831 84.3863 18.7727ZM84.3148 14.9594C84.005 12.6238 83.1708 11.8849 81.6216 11.8849C79.9055 11.8849 79.0713 12.7668 78.8568 14.9594H84.3148Z" fill="#001C27"/>
<path d="M90.2969 22.8482H93.6337V14.4589C94.0627 13.7678 94.9922 12.6953 96.5653 12.6953C98.2814 12.6953 98.8057 13.6724 98.8057 15.6268V22.8482H102.142V15.6506C102.142 11.3606 100.951 9.71613 97.8523 9.71613C95.1829 9.71613 93.8005 11.0985 93.3 11.7896L92.9187 9.90679H90.0586L90.2969 13.3626V22.8482Z" fill="#001C27"/>
<path d="M118.112 18.1531C118.112 11.5751 108.03 14.0299 108.03 10.312C108.03 9.09647 108.792 8.11931 111.2 8.14314C113.941 8.16697 114.465 9.5493 114.465 11.0031H117.778C117.778 7.38048 116.086 5.30699 111.176 5.28316C106.671 5.25933 104.669 7.28515 104.645 10.4073C104.574 16.9614 114.68 14.5304 114.68 18.2722C114.68 19.8214 113.44 20.5126 111.414 20.4887C109.031 20.4649 107.791 19.3924 107.791 17.2712H104.479C104.479 21.3229 106.79 23.2772 111.271 23.301C115.8 23.3249 118.112 21.5612 118.112 18.1531Z" fill="#001C27"/>
<path fill-rule="evenodd" clip-rule="evenodd" d="M123.903 7.88098H120.566V4.592H123.903V7.88098ZM123.903 22.8482H120.566V9.9068H123.903V22.8482Z" fill="#001C27"/>
<path fill-rule="evenodd" clip-rule="evenodd" d="M138.657 13.4579V22.8959C138.657 22.9229 138.657 22.9501 138.657 22.9774C138.657 25.354 138.659 28.592 132.603 28.592C126.525 28.592 126.93 23.9922 126.93 23.9922H130.339C130.339 24.0007 130.338 24.0115 130.338 24.0243C130.333 24.3709 130.307 26.2325 132.674 26.2325C135.225 26.2325 135.32 24.8264 135.32 22.872V21.7995C134.653 22.4907 133.532 23.1104 131.578 23.1104C127.979 23.1104 126.454 20.7509 126.454 16.4371C126.454 12.0994 127.955 9.64463 131.53 9.64463C133.938 9.64463 135.248 10.9078 135.701 11.456L136.035 9.9068H138.871L138.657 13.4579ZM129.814 16.4132C129.814 19.1064 130.648 20.4172 132.484 20.4172C133.866 20.4172 134.748 19.7499 135.32 19.0349V13.7439C134.819 13.1004 133.938 12.3378 132.507 12.3378C130.648 12.3378 129.814 13.7201 129.814 16.4132Z" fill="#001C27"/>
<path d="M141.731 22.8482H145.068V14.5304C145.473 13.8393 146.426 12.6953 148.047 12.6953C149.763 12.6953 150.287 13.6724 150.287 15.4361V22.8482H153.624V15.4361C153.648 11.3606 152.432 9.71613 149.334 9.71613C147.07 9.71613 145.711 10.7171 145.068 11.456V4.85416H141.731V22.8482Z" fill="#001C27"/>
<path d="M163.349 22.8959V20.0121H162.419C160.727 20.0121 160.345 19.1064 160.345 17.0567V12.3854H163.277V9.9068H160.345V5.78366L157.009 6.30799V9.9068H155.34V12.3854H157.009V17.1759C157.009 20.6079 157.414 22.8959 162.157 22.8959H163.349Z" fill="#001C27"/>
</svg>
